<?xml version="1.0" standalone="no"?>
<!DOCTYPE svg PUBLIC "-//W3C//DTD SVG 20010904//EN"
 "http://www.w3.org/TR/2001/REC-SVG-20010904/DTD/svg10.dtd">
<svg version="1.0" xmlns="http://www.w3.org/2000/svg"
 width="801.000000pt" height="169.000000pt" viewBox="0 0 801.000000 169.000000"
 preserveAspectRatio="xMidYMid meet">
<metadata>
Created by potrace 1.15, written by Peter Selinger 2001-2017
</metadata>
<g transform="translate(0.000000,169.000000) scale(0.100000,-0.100000)"
fill="#000000" stroke="none">
<path d="M1805 1625 c480 -94 905 -257 905 -346 0 -63 -234 -115 -624 -139
-93 -6 -428 -10 -745 -10 -608 1 -742 -6 -938 -49 -153 -33 -292 -89 -370
-148 l-33 -24 0 -224 c0 -190 2 -226 16 -239 30 -31 106 -78 178 -111 179 -83
355 -125 714 -171 25 -3 42 -10 42 -18 0 -13 99 -26 202 -26 l48 0 0 195 0
195 -115 0 c-100 0 -115 -2 -115 -17 0 -32 -374 -1 -565 49 -141 36 -285 117
-285 159 0 23 87 92 162 128 217 104 507 153 1013 171 905 32 1363 100 1454
216 13 16 21 41 21 64 0 31 -7 44 -44 78 -76 70 -252 140 -506 202 -153 37
-380 78 -475 85 -59 4 -50 1 60 -20z"/>
<path d="M1637 633 c-4 -3 -7 -147 -7 -320 l0 -313 45 0 45 0 0 320 0 320 -38
0 c-21 0 -42 -3 -45 -7z"/>
<path d="M1470 601 c-12 -24 -14 -570 -1 -589 5 -8 23 -12 47 -10 l39 3 3 299
c2 233 -1 301 -10 308 -24 15 -67 9 -78 -11z"/>
<path d="M1295 588 c-3 -7 -4 -137 -3 -288 l3 -275 40 0 40 0 0 285 0 285 -38
3 c-24 2 -39 -1 -42 -10z"/>
</g>
</svg>
